# Blender v2.93.6 OBJ File: 'untitled.blend'
# www.blender.org
mtllib wallwithinside.mtl
o Cube.077_Cube.092
v 24.354122 4.000000 4.023416
v 24.354122 -0.000000 4.023416
v 24.354122 4.000000 2.023416
v 24.354122 -0.000000 2.023416
v 24.530945 4.000000 4.023416
v 24.530945 -0.000000 4.023416
v 24.530945 4.000000 2.023416
v 24.530945 -0.000000 2.023416
v 24.530945 0.000000 3.523416
v 24.530945 -0.000000 3.023416
v 24.530945 -0.000000 2.523415
v 24.398329 0.000000 4.023416
v 24.442533 -0.000000 4.023416
v 24.486740 0.000000 4.023416
v 24.354122 3.000000 4.023416
v 24.354122 2.000000 4.023416
v 24.354122 1.000000 4.023416
v 24.530945 1.000000 2.023416
v 24.530945 2.000000 2.023416
v 24.530945 3.000000 2.023416
v 24.354122 3.000000 2.023416
v 24.354122 2.000000 2.023416
v 24.354122 1.000000 2.023416
v 24.530945 3.000000 4.023416
v 24.530945 2.000000 4.023416
v 24.530945 1.000000 4.023416
v 24.398327 4.000000 2.023416
v 24.442533 4.000000 2.023416
v 24.486738 4.000000 2.023416
v 24.354122 4.000000 3.523416
v 24.354122 4.000000 3.023416
v 24.354122 4.000000 2.523416
v 24.486738 0.000000 2.023416
v 24.442533 -0.000000 2.023416
v 24.398327 -0.000000 2.023416
v 24.530945 4.000000 2.523416
v 24.530945 4.000000 3.023416
v 24.530945 4.000000 3.523416
v 24.486740 4.000000 4.023416
v 24.442533 4.000000 4.023416
v 24.398329 4.000000 4.023416
v 24.354122 -0.000000 2.523416
v 24.354122 -0.000000 3.023416
v 24.354122 -0.000000 3.523416
v 24.398329 4.000000 3.523416
v 24.442533 4.000000 3.523416
v 24.486740 4.000000 3.523416
v 24.398329 4.000000 3.023416
v 24.442533 4.000000 3.023416
v 24.486738 4.000000 3.023416
v 24.398327 4.000000 2.523416
v 24.442533 4.000000 2.523416
v 24.486738 4.000000 2.523416
v 24.398327 1.000000 2.023416
v 24.398327 2.000000 2.023416
v 24.398327 3.000000 2.023416
v 24.442533 1.000000 2.023416
v 24.442533 2.000000 2.023416
v 24.442533 3.000000 2.023416
v 24.486738 1.000000 2.023416
v 24.486738 2.000000 2.023416
v 24.486738 3.000000 2.023416
v 24.530945 1.000000 2.523416
v 24.530945 2.000000 2.523416
v 24.530945 3.000000 2.523416
v 24.530945 1.000000 3.023416
v 24.530945 2.000000 3.023416
v 24.530945 3.000000 3.023416
v 24.530945 1.000000 3.523416
v 24.530945 2.000000 3.523416
v 24.530945 3.000000 3.523416
v 24.486740 0.000000 3.523416
v 24.442533 0.000000 3.523416
v 24.398329 0.000000 3.523416
v 24.486738 -0.000000 3.023416
v 24.442533 -0.000000 3.023416
v 24.398329 -0.000000 3.023416
v 24.486738 0.000000 2.523416
v 24.442533 -0.000000 2.523416
v 24.398327 0.000000 2.523416
v 24.354122 1.000000 3.523416
v 24.354122 2.000000 3.523416
v 24.354122 3.000000 3.523416
v 24.354122 1.000000 3.023416
v 24.354122 2.000000 3.023416
v 24.354122 3.000000 3.023416
v 24.354122 1.000000 2.523416
v 24.354122 2.000000 2.523416
v 24.354122 3.000000 2.523416
v 24.486740 1.000000 4.023416
v 24.486740 2.000000 4.023416
v 24.486740 3.000000 4.023416
v 24.442533 1.000000 4.023416
v 24.442533 2.000000 4.023416
v 24.442533 3.000000 4.023416
v 24.398329 1.000000 4.023416
v 24.398329 2.000000 4.023416
v 24.398329 3.000000 4.023416
vt 0.564050 0.981004
vt 0.626550 0.981004
vt 0.626550 0.968504
vt 0.564050 0.968504
vt 0.689050 0.981004
vt 0.689050 0.968504
vt 0.626550 0.956004
vt 0.564050 0.956004
vt 0.689050 0.956004
vt 0.501550 0.993504
vt 0.564050 0.993504
vt 0.501550 0.981004
vt 0.626550 0.993504
vt 0.689050 0.993504
vt 0.751550 0.993504
vt 0.751550 0.981004
vt 0.751550 0.968504
vt 0.751550 0.956004
vt 0.751550 0.943504
vt 0.689050 0.943504
vt 0.626550 0.943504
vt 0.564050 0.943504
vt 0.501550 0.956004
vt 0.501550 0.943504
vt 0.501550 0.968504
vt 0.814050 0.981004
vt 0.876550 0.981004
vt 0.876550 0.968504
vt 0.814050 0.968504
vt 0.939050 0.981004
vt 0.939050 0.968504
vt 0.876550 0.956004
vt 0.814050 0.956004
vt 0.939050 0.956004
vt 0.751550 0.993504
vt 0.814050 0.993504
vt 0.751550 0.981004
vt 0.876550 0.993504
vt 0.939050 0.993504
vt 1.001550 0.993504
vt 1.001550 0.981004
vt 1.001550 0.968504
vt 1.001550 0.956004
vt 1.001550 0.943504
vt 0.939050 0.943504
vt 0.876550 0.943504
vt 0.814050 0.943504
vt 0.751550 0.956004
vt 0.751550 0.943504
vt 0.751550 0.968504
vt 0.255868 0.587014
vt 0.500000 0.587014
vt 0.500000 0.701242
vt 0.255868 0.701242
vt 0.744132 0.587014
vt 0.744133 0.701242
vt 0.500000 0.815470
vt 0.255868 0.815470
vt 0.744133 0.815470
vt 0.011735 0.472786
vt 0.255868 0.472786
vt 0.011735 0.587014
vt 0.500000 0.472786
vt 0.744132 0.472786
vt 0.988265 0.472786
vt 0.988265 0.587014
vt 0.988265 0.701242
vt 0.988265 0.815470
vt 0.988265 0.929698
vt 0.744133 0.929698
vt 0.500000 0.929698
vt 0.255868 0.929698
vt 0.011735 0.815470
vt 0.011735 0.929698
vt 0.011735 0.701242
vt 0.064050 0.981004
vt 0.126550 0.981004
vt 0.126550 0.968504
vt 0.064050 0.968504
vt 0.189050 0.981004
vt 0.189050 0.968504
vt 0.126550 0.956004
vt 0.064050 0.956004
vt 0.189050 0.956004
vt 0.001550 0.993504
vt 0.064050 0.993504
vt 0.001550 0.981004
vt 0.126550 0.993504
vt 0.189050 0.993504
vt 0.251550 0.993504
vt 0.251550 0.981004
vt 0.251550 0.968504
vt 0.251550 0.956004
vt 0.251550 0.943504
vt 0.189050 0.943504
vt 0.126550 0.943504
vt 0.064050 0.943504
vt 0.001550 0.956004
vt 0.001550 0.943504
vt 0.001550 0.968504
vt 0.255868 0.117798
vt 0.500000 0.117798
vt 0.500000 0.232026
vt 0.255868 0.232026
vt 0.744132 0.117798
vt 0.744133 0.232026
vt 0.500000 0.346254
vt 0.255868 0.346254
vt 0.744133 0.346254
vt 0.011735 0.003570
vt 0.255868 0.003570
vt 0.011735 0.117798
vt 0.500000 0.003570
vt 0.744132 0.003570
vt 0.988265 0.003570
vt 0.988265 0.117798
vt 0.988265 0.232026
vt 0.988265 0.346254
vt 0.988265 0.460482
vt 0.744133 0.460482
vt 0.500000 0.460482
vt 0.255868 0.460482
vt 0.011735 0.346254
vt 0.011735 0.460482
vt 0.011735 0.232026
vt 0.314050 0.981004
vt 0.376550 0.981004
vt 0.376550 0.968504
vt 0.314050 0.968504
vt 0.439050 0.981004
vt 0.439050 0.968504
vt 0.376550 0.956004
vt 0.314050 0.956004
vt 0.439050 0.956004
vt 0.251550 0.993504
vt 0.314050 0.993504
vt 0.251550 0.981004
vt 0.376550 0.993504
vt 0.439050 0.993504
vt 0.501550 0.993504
vt 0.501550 0.981004
vt 0.501550 0.968504
vt 0.501550 0.956004
vt 0.501550 0.943504
vt 0.439050 0.943504
vt 0.376550 0.943504
vt 0.314050 0.943504
vt 0.251550 0.956004
vt 0.251550 0.943504
vt 0.251550 0.968504
vn 0.0000 1.0000 0.0000
vn 0.0000 0.0000 -1.0000
vn 1.0000 0.0000 0.0000
vn 0.0000 -1.0000 0.0000
vn -1.0000 0.0000 0.0000
vn 0.0000 0.0000 1.0000
usemtl white_wall
s off
f 45/1/1 46/2/1 49/3/1 48/4/1
f 46/2/1 47/5/1 50/6/1 49/3/1
f 48/4/1 49/3/1 52/7/1 51/8/1
f 49/3/1 50/6/1 53/9/1 52/7/1
f 1/10/1 41/11/1 45/1/1 30/12/1
f 41/11/1 40/13/1 46/2/1 45/1/1
f 40/13/1 39/14/1 47/5/1 46/2/1
f 39/14/1 5/15/1 38/16/1 47/5/1
f 47/5/1 38/16/1 37/17/1 50/6/1
f 50/6/1 37/17/1 36/18/1 53/9/1
f 53/9/1 36/18/1 7/19/1 29/20/1
f 52/7/1 53/9/1 29/20/1 28/21/1
f 51/8/1 52/7/1 28/21/1 27/22/1
f 32/23/1 51/8/1 27/22/1 3/24/1
f 31/25/1 48/4/1 51/8/1 32/23/1
f 30/12/1 45/1/1 48/4/1 31/25/1
f 54/26/2 55/27/2 58/28/2 57/29/2
f 55/27/2 56/30/2 59/31/2 58/28/2
f 57/29/2 58/28/2 61/32/2 60/33/2
f 58/28/2 59/31/2 62/34/2 61/32/2
f 4/35/2 23/36/2 54/26/2 35/37/2
f 23/36/2 22/38/2 55/27/2 54/26/2
f 22/38/2 21/39/2 56/30/2 55/27/2
f 21/39/2 3/40/2 27/41/2 56/30/2
f 56/30/2 27/41/2 28/42/2 59/31/2
f 59/31/2 28/42/2 29/43/2 62/34/2
f 62/34/2 29/43/2 7/44/2 20/45/2
f 61/32/2 62/34/2 20/45/2 19/46/2
f 60/33/2 61/32/2 19/46/2 18/47/2
f 33/48/2 60/33/2 18/47/2 8/49/2
f 34/50/2 57/29/2 60/33/2 33/48/2
f 35/37/2 54/26/2 57/29/2 34/50/2
f 63/51/3 64/52/3 67/53/3 66/54/3
f 64/52/3 65/55/3 68/56/3 67/53/3
f 66/54/3 67/53/3 70/57/3 69/58/3
f 67/53/3 68/56/3 71/59/3 70/57/3
f 8/60/3 18/61/3 63/51/3 11/62/3
f 18/61/3 19/63/3 64/52/3 63/51/3
f 19/63/3 20/64/3 65/55/3 64/52/3
f 20/64/3 7/65/3 36/66/3 65/55/3
f 65/55/3 36/66/3 37/67/3 68/56/3
f 68/56/3 37/67/3 38/68/3 71/59/3
f 71/59/3 38/68/3 5/69/3 24/70/3
f 70/57/3 71/59/3 24/70/3 25/71/3
f 69/58/3 70/57/3 25/71/3 26/72/3
f 9/73/3 69/58/3 26/72/3 6/74/3
f 10/75/3 66/54/3 69/58/3 9/73/3
f 11/62/3 63/51/3 66/54/3 10/75/3
f 72/76/4 73/77/4 76/78/4 75/79/4
f 73/77/4 74/80/4 77/81/4 76/78/4
f 75/79/4 76/78/4 79/82/4 78/83/4
f 76/78/4 77/81/4 80/84/4 79/82/4
f 6/85/4 14/86/4 72/76/4 9/87/4
f 14/86/4 13/88/4 73/77/4 72/76/4
f 13/88/4 12/89/4 74/80/4 73/77/4
f 12/89/4 2/90/4 44/91/4 74/80/4
f 74/80/4 44/91/4 43/92/4 77/81/4
f 77/81/4 43/92/4 42/93/4 80/84/4
f 80/84/4 42/93/4 4/94/4 35/95/4
f 79/82/4 80/84/4 35/95/4 34/96/4
f 78/83/4 79/82/4 34/96/4 33/97/4
f 11/98/4 78/83/4 33/97/4 8/99/4
f 10/100/4 75/79/4 78/83/4 11/98/4
f 9/87/4 72/76/4 75/79/4 10/100/4
f 81/101/5 82/102/5 85/103/5 84/104/5
f 82/102/5 83/105/5 86/106/5 85/103/5
f 84/104/5 85/103/5 88/107/5 87/108/5
f 85/103/5 86/106/5 89/109/5 88/107/5
f 2/110/5 17/111/5 81/101/5 44/112/5
f 17/111/5 16/113/5 82/102/5 81/101/5
f 16/113/5 15/114/5 83/105/5 82/102/5
f 15/114/5 1/115/5 30/116/5 83/105/5
f 83/105/5 30/116/5 31/117/5 86/106/5
f 86/106/5 31/117/5 32/118/5 89/109/5
f 89/109/5 32/118/5 3/119/5 21/120/5
f 88/107/5 89/109/5 21/120/5 22/121/5
f 87/108/5 88/107/5 22/121/5 23/122/5
f 42/123/5 87/108/5 23/122/5 4/124/5
f 43/125/5 84/104/5 87/108/5 42/123/5
f 44/112/5 81/101/5 84/104/5 43/125/5
f 90/126/6 91/127/6 94/128/6 93/129/6
f 91/127/6 92/130/6 95/131/6 94/128/6
f 93/129/6 94/128/6 97/132/6 96/133/6
f 94/128/6 95/131/6 98/134/6 97/132/6
f 6/135/6 26/136/6 90/126/6 14/137/6
f 26/136/6 25/138/6 91/127/6 90/126/6
f 25/138/6 24/139/6 92/130/6 91/127/6
f 24/139/6 5/140/6 39/141/6 92/130/6
f 92/130/6 39/141/6 40/142/6 95/131/6
f 95/131/6 40/142/6 41/143/6 98/134/6
f 98/134/6 41/143/6 1/144/6 15/145/6
f 97/132/6 98/134/6 15/145/6 16/146/6
f 96/133/6 97/132/6 16/146/6 17/147/6
f 12/148/6 96/133/6 17/147/6 2/149/6
f 13/150/6 93/129/6 96/133/6 12/148/6
f 14/137/6 90/126/6 93/129/6 13/150/6
