# Blender v2.93.6 OBJ File: 'untitled.blend'
# www.blender.org
mtllib merdiven.mtl
o Cube.176_Cube.056
v 12.215368 5.010601 -0.148804
v 12.215368 5.010601 -3.004694
v 11.442649 5.010601 -3.004694
v 11.442649 5.010601 -0.148804
v 11.442649 4.510601 -3.004694
v 11.442649 4.510601 -0.148804
v 12.215368 5.010601 -3.004694
v 12.215368 5.010601 -0.148804
v 11.442649 4.510601 -3.004694
v 11.442649 4.510601 -0.148804
v 12.215368 5.010601 -3.004694
v 12.215368 5.010601 -0.148804
v 11.442649 4.310601 -3.004694
v 11.442649 4.310601 -0.148804
v 12.215368 4.839026 -3.004694
v 12.215368 4.839026 -0.148804
v 11.442649 4.963867 -3.004694
v 11.442649 4.963867 -0.148804
v 11.355754 5.010601 -3.004694
v 11.355754 5.010601 -0.148804
v 11.355754 4.963867 -0.148804
v 11.355754 4.963867 -3.004694
v 11.441715 4.485600 -0.148804
v 11.441715 4.485600 -3.004694
v 10.668996 4.485600 -3.004694
v 10.668996 4.485600 -0.148804
v 10.668996 3.985601 -3.004694
v 10.668996 3.985601 -0.148804
v 11.441715 4.485600 -3.004694
v 11.441715 4.485600 -0.148804
v 10.668996 3.985601 -3.004694
v 10.668996 3.985601 -0.148804
v 11.441715 4.485600 -3.004694
v 11.441715 4.485600 -0.148804
v 10.668996 3.785601 -3.004694
v 10.668996 3.785601 -0.148804
v 11.441715 4.314026 -3.004694
v 11.441715 4.314026 -0.148804
v 10.668996 4.438867 -3.004694
v 10.668996 4.438867 -0.148804
v 10.582101 4.485600 -3.004694
v 10.582101 4.485600 -0.148804
v 10.582101 4.438867 -0.148804
v 10.582101 4.438867 -3.004694
v 10.668062 3.960601 -0.148804
v 10.668062 3.960601 -3.004694
v 9.895344 3.960601 -3.004694
v 9.895344 3.960601 -0.148804
v 9.895344 3.460601 -3.004694
v 9.895344 3.460601 -0.148804
v 10.668062 3.960601 -3.004694
v 10.668062 3.960601 -0.148804
v 9.895344 3.460601 -3.004694
v 9.895344 3.460601 -0.148804
v 10.668062 3.960601 -3.004694
v 10.668062 3.960601 -0.148804
v 9.895344 3.260601 -3.004694
v 9.895344 3.260601 -0.148804
v 10.668062 3.789026 -3.004694
v 10.668062 3.789026 -0.148804
v 9.895344 3.913867 -3.004694
v 9.895344 3.913867 -0.148804
v 9.808449 3.960601 -3.004694
v 9.808449 3.960601 -0.148804
v 9.808449 3.913867 -0.148804
v 9.808449 3.913867 -3.004694
v 9.894410 3.435601 -0.148804
v 9.894410 3.435601 -3.004694
v 9.121691 3.435601 -3.004694
v 9.121691 3.435601 -0.148804
v 9.121691 2.935601 -3.004694
v 9.121691 2.935601 -0.148804
v 9.894410 3.435601 -3.004694
v 9.894410 3.435601 -0.148804
v 9.121691 2.935601 -3.004694
v 9.121691 2.935601 -0.148804
v 9.894410 3.435601 -3.004694
v 9.894410 3.435601 -0.148804
v 9.121691 2.735601 -3.004694
v 9.121691 2.735601 -0.148804
v 9.894410 3.264026 -3.004694
v 9.894410 3.264026 -0.148804
v 9.121691 3.388867 -3.004694
v 9.121691 3.388867 -0.148804
v 9.034796 3.435601 -3.004694
v 9.034796 3.435601 -0.148804
v 9.034796 3.388867 -0.148804
v 9.034796 3.388867 -3.004694
v 9.120757 2.910601 -0.148804
v 9.120757 2.910601 -3.004694
v 8.348038 2.910601 -3.004694
v 8.348038 2.910601 -0.148804
v 8.348038 2.410601 -3.004694
v 8.348038 2.410601 -0.148804
v 9.120757 2.910601 -3.004694
v 9.120757 2.910601 -0.148804
v 8.348038 2.410601 -3.004694
v 8.348038 2.410601 -0.148804
v 9.120757 2.910601 -3.004694
v 9.120757 2.910601 -0.148804
v 8.348038 2.210601 -3.004694
v 8.348038 2.210601 -0.148804
v 9.120757 2.739026 -3.004694
v 9.120757 2.739026 -0.148804
v 8.348038 2.863867 -3.004694
v 8.348038 2.863867 -0.148804
v 8.261143 2.910601 -3.004694
v 8.261143 2.910601 -0.148804
v 8.261143 2.863867 -0.148804
v 8.261143 2.863867 -3.004694
vt 0.746745 0.008772
vt 0.957042 0.008772
vt 0.957042 0.901120
vt 0.746745 0.901121
vt 0.072689 0.722830
vt 0.027690 0.454548
vt 0.108978 0.446920
vt 0.153976 0.715202
vt 0.116071 0.449030
vt 0.160254 0.712247
vt 0.210422 0.041885
vt 0.220881 0.000124
vt 0.519549 0.041975
vt 0.519549 0.934324
vt 0.329254 0.999876
vt 0.312871 0.973268
vt 0.500543 0.915253
vt 0.155798 0.628022
vt 0.478702 0.896166
vt 0.500425 0.073296
vt 0.151143 0.564765
vt 0.154081 0.628061
vt 0.482557 0.101598
vt 0.153144 0.564562
vt 0.685807 0.642738
vt 0.685807 0.005984
vt 0.729674 0.005984
vt 0.729674 0.642738
vt 0.685607 0.005984
vt 0.685607 0.642737
vt 0.536148 0.642737
vt 0.536148 0.005984
vt 0.215831 0.498859
vt 0.389965 0.777044
vt 0.986407 0.008745
vt 0.986407 0.901094
vt 0.056147 0.726351
vt 0.010154 0.454527
vt 0.021877 0.458526
vt 0.064672 0.721156
vt 0.014827 0.448738
vt 0.062868 0.731694
vt 0.746745 0.008772
vt 0.957042 0.008772
vt 0.957042 0.901120
vt 0.746745 0.901121
vt 0.072689 0.722830
vt 0.027690 0.454548
vt 0.108978 0.446920
vt 0.153976 0.715202
vt 0.116071 0.449030
vt 0.160254 0.712247
vt 0.210422 0.041885
vt 0.220881 0.000124
vt 0.519549 0.041975
vt 0.519549 0.934324
vt 0.329254 0.999876
vt 0.312871 0.973268
vt 0.500543 0.915253
vt 0.155798 0.628022
vt 0.478702 0.896166
vt 0.500425 0.073296
vt 0.151143 0.564765
vt 0.154081 0.628061
vt 0.482557 0.101598
vt 0.153144 0.564562
vt 0.685807 0.642738
vt 0.685807 0.005984
vt 0.729674 0.005984
vt 0.729674 0.642738
vt 0.685607 0.005984
vt 0.685607 0.642737
vt 0.536148 0.642737
vt 0.536148 0.005984
vt 0.215831 0.498859
vt 0.389965 0.777044
vt 0.986407 0.008745
vt 0.986407 0.901094
vt 0.056147 0.726351
vt 0.010154 0.454527
vt 0.021877 0.458526
vt 0.064672 0.721156
vt 0.014827 0.448738
vt 0.062868 0.731694
vt 0.746745 0.008772
vt 0.957042 0.008772
vt 0.957042 0.901120
vt 0.746745 0.901121
vt 0.072689 0.722830
vt 0.027690 0.454548
vt 0.108978 0.446920
vt 0.153976 0.715202
vt 0.116071 0.449030
vt 0.160254 0.712247
vt 0.210422 0.041885
vt 0.220881 0.000124
vt 0.519549 0.041975
vt 0.519549 0.934324
vt 0.329254 0.999876
vt 0.312871 0.973268
vt 0.500543 0.915253
vt 0.155798 0.628022
vt 0.478702 0.896166
vt 0.500425 0.073296
vt 0.151143 0.564765
vt 0.154081 0.628061
vt 0.482557 0.101598
vt 0.153144 0.564562
vt 0.685807 0.642738
vt 0.685807 0.005984
vt 0.729674 0.005984
vt 0.729674 0.642738
vt 0.685607 0.005984
vt 0.685607 0.642737
vt 0.536148 0.642737
vt 0.536148 0.005984
vt 0.215831 0.498859
vt 0.389965 0.777044
vt 0.986407 0.008745
vt 0.986407 0.901094
vt 0.056147 0.726351
vt 0.010154 0.454527
vt 0.021877 0.458526
vt 0.064672 0.721156
vt 0.014827 0.448738
vt 0.062868 0.731694
vt 0.746745 0.008772
vt 0.957042 0.008772
vt 0.957042 0.901120
vt 0.746745 0.901121
vt 0.072689 0.722830
vt 0.027690 0.454548
vt 0.108978 0.446920
vt 0.153976 0.715202
vt 0.116071 0.449030
vt 0.160254 0.712247
vt 0.210422 0.041885
vt 0.220881 0.000124
vt 0.519549 0.041975
vt 0.519549 0.934324
vt 0.329254 0.999876
vt 0.312871 0.973268
vt 0.500543 0.915253
vt 0.155798 0.628022
vt 0.478702 0.896166
vt 0.500425 0.073296
vt 0.151143 0.564765
vt 0.154081 0.628061
vt 0.482557 0.101598
vt 0.153144 0.564562
vt 0.685807 0.642738
vt 0.685807 0.005984
vt 0.729674 0.005984
vt 0.729674 0.642738
vt 0.685607 0.005984
vt 0.685607 0.642737
vt 0.536148 0.642737
vt 0.536148 0.005984
vt 0.215831 0.498859
vt 0.389965 0.777044
vt 0.986407 0.008745
vt 0.986407 0.901094
vt 0.056147 0.726351
vt 0.010154 0.454527
vt 0.021877 0.458526
vt 0.064672 0.721156
vt 0.014827 0.448738
vt 0.062868 0.731694
vt 0.746745 0.008772
vt 0.957042 0.008772
vt 0.957042 0.901120
vt 0.746745 0.901121
vt 0.072689 0.722830
vt 0.027690 0.454548
vt 0.108978 0.446920
vt 0.153976 0.715202
vt 0.116071 0.449030
vt 0.160254 0.712247
vt 0.210422 0.041885
vt 0.220881 0.000124
vt 0.519549 0.041975
vt 0.519549 0.934324
vt 0.329254 0.999876
vt 0.312871 0.973268
vt 0.500543 0.915253
vt 0.155798 0.628022
vt 0.478702 0.896166
vt 0.500425 0.073296
vt 0.151143 0.564765
vt 0.154081 0.628061
vt 0.482557 0.101598
vt 0.153144 0.564562
vt 0.685807 0.642738
vt 0.685807 0.005984
vt 0.729674 0.005984
vt 0.729674 0.642738
vt 0.685607 0.005984
vt 0.685607 0.642737
vt 0.536148 0.642737
vt 0.536148 0.005984
vt 0.215831 0.498859
vt 0.389965 0.777044
vt 0.986407 0.008745
vt 0.986407 0.901094
vt 0.056147 0.726351
vt 0.010154 0.454527
vt 0.021877 0.458526
vt 0.064672 0.721156
vt 0.014827 0.448738
vt 0.062868 0.731694
vn 0.0000 1.0000 0.0000
vn -1.0000 0.0000 0.0000
vn 0.0000 0.0000 1.0000
vn 0.0000 0.0000 -1.0000
vn 1.0000 0.0000 0.0000
vn 0.5645 -0.8254 0.0000
vn 0.0000 -1.0000 0.0000
usemtl None
s off
f 2/1/1 3/2/1 4/3/1 1/4/1
f 18/5/2 17/6/2 5/7/2 6/8/2
f 6/8/3 5/7/3 9/9/3 10/10/3
f 5/7/4 17/11/4 3/12/4 2/13/4
f 6/8/3 1/14/3 4/15/3 18/16/3
f 8/17/3 10/10/3 14/18/3 12/19/3
f 2/13/3 1/14/3 8/17/3 7/20/3
f 5/7/3 2/13/3 7/20/3 9/9/3
f 1/14/3 6/8/3 10/10/3 8/17/3
f 10/10/2 9/9/2 13/21/2 14/22/2
f 9/9/4 7/20/4 11/23/4 13/24/4
f 7/20/3 8/17/3 12/19/3 11/23/3
f 11/25/5 12/26/5 16/27/5 15/28/5
f 14/29/6 13/30/6 15/31/6 16/32/6
f 11/23/4 15/33/4 13/24/4
f 16/34/3 12/19/3 14/18/3
f 4/3/1 3/2/1 19/35/1 20/36/1
f 20/37/2 19/38/2 22/39/2 21/40/2
f 17/6/7 18/5/7 21/40/7 22/39/7
f 3/41/4 17/6/4 22/39/4 19/38/4
f 18/5/3 4/42/3 20/37/3 21/40/3
f 24/43/1 25/44/1 26/45/1 23/46/1
f 40/47/2 39/48/2 27/49/2 28/50/2
f 28/50/3 27/49/3 31/51/3 32/52/3
f 27/49/4 39/53/4 25/54/4 24/55/4
f 28/50/3 23/56/3 26/57/3 40/58/3
f 30/59/3 32/52/3 36/60/3 34/61/3
f 24/55/3 23/56/3 30/59/3 29/62/3
f 27/49/3 24/55/3 29/62/3 31/51/3
f 23/56/3 28/50/3 32/52/3 30/59/3
f 32/52/2 31/51/2 35/63/2 36/64/2
f 31/51/4 29/62/4 33/65/4 35/66/4
f 29/62/3 30/59/3 34/61/3 33/65/3
f 33/67/5 34/68/5 38/69/5 37/70/5
f 36/71/6 35/72/6 37/73/6 38/74/6
f 33/65/4 37/75/4 35/66/4
f 38/76/3 34/61/3 36/60/3
f 26/45/1 25/44/1 41/77/1 42/78/1
f 42/79/2 41/80/2 44/81/2 43/82/2
f 39/48/7 40/47/7 43/82/7 44/81/7
f 25/83/4 39/48/4 44/81/4 41/80/4
f 40/47/3 26/84/3 42/79/3 43/82/3
f 46/85/1 47/86/1 48/87/1 45/88/1
f 62/89/2 61/90/2 49/91/2 50/92/2
f 50/92/3 49/91/3 53/93/3 54/94/3
f 49/91/4 61/95/4 47/96/4 46/97/4
f 50/92/3 45/98/3 48/99/3 62/100/3
f 52/101/3 54/94/3 58/102/3 56/103/3
f 46/97/3 45/98/3 52/101/3 51/104/3
f 49/91/3 46/97/3 51/104/3 53/93/3
f 45/98/3 50/92/3 54/94/3 52/101/3
f 54/94/2 53/93/2 57/105/2 58/106/2
f 53/93/4 51/104/4 55/107/4 57/108/4
f 51/104/3 52/101/3 56/103/3 55/107/3
f 55/109/5 56/110/5 60/111/5 59/112/5
f 58/113/6 57/114/6 59/115/6 60/116/6
f 55/107/4 59/117/4 57/108/4
f 60/118/3 56/103/3 58/102/3
f 48/87/1 47/86/1 63/119/1 64/120/1
f 64/121/2 63/122/2 66/123/2 65/124/2
f 61/90/7 62/89/7 65/124/7 66/123/7
f 47/125/4 61/90/4 66/123/4 63/122/4
f 62/89/3 48/126/3 64/121/3 65/124/3
f 68/127/1 69/128/1 70/129/1 67/130/1
f 84/131/2 83/132/2 71/133/2 72/134/2
f 72/134/3 71/133/3 75/135/3 76/136/3
f 71/133/4 83/137/4 69/138/4 68/139/4
f 72/134/3 67/140/3 70/141/3 84/142/3
f 74/143/3 76/136/3 80/144/3 78/145/3
f 68/139/3 67/140/3 74/143/3 73/146/3
f 71/133/3 68/139/3 73/146/3 75/135/3
f 67/140/3 72/134/3 76/136/3 74/143/3
f 76/136/2 75/135/2 79/147/2 80/148/2
f 75/135/4 73/146/4 77/149/4 79/150/4
f 73/146/3 74/143/3 78/145/3 77/149/3
f 77/151/5 78/152/5 82/153/5 81/154/5
f 80/155/6 79/156/6 81/157/6 82/158/6
f 77/149/4 81/159/4 79/150/4
f 82/160/3 78/145/3 80/144/3
f 70/129/1 69/128/1 85/161/1 86/162/1
f 86/163/2 85/164/2 88/165/2 87/166/2
f 83/132/7 84/131/7 87/166/7 88/165/7
f 69/167/4 83/132/4 88/165/4 85/164/4
f 84/131/3 70/168/3 86/163/3 87/166/3
f 90/169/1 91/170/1 92/171/1 89/172/1
f 106/173/2 105/174/2 93/175/2 94/176/2
f 94/176/3 93/175/3 97/177/3 98/178/3
f 93/175/4 105/179/4 91/180/4 90/181/4
f 94/176/3 89/182/3 92/183/3 106/184/3
f 96/185/3 98/178/3 102/186/3 100/187/3
f 90/181/3 89/182/3 96/185/3 95/188/3
f 93/175/3 90/181/3 95/188/3 97/177/3
f 89/182/3 94/176/3 98/178/3 96/185/3
f 98/178/2 97/177/2 101/189/2 102/190/2
f 97/177/4 95/188/4 99/191/4 101/192/4
f 95/188/3 96/185/3 100/187/3 99/191/3
f 99/193/5 100/194/5 104/195/5 103/196/5
f 102/197/6 101/198/6 103/199/6 104/200/6
f 99/191/4 103/201/4 101/192/4
f 104/202/3 100/187/3 102/186/3
f 92/171/1 91/170/1 107/203/1 108/204/1
f 108/205/2 107/206/2 110/207/2 109/208/2
f 105/174/7 106/173/7 109/208/7 110/207/7
f 91/209/4 105/174/4 110/207/4 107/206/4
f 106/173/3 92/210/3 108/205/3 109/208/3
